<?xml version="1.0" encoding="UTF-8"?>
<svg width="155px" height="31px" viewBox="0 0 155 31" version="1.1" xmlns="http://www.w3.org/2000/svg" xmlns:xlink="http://www.w3.org/1999/xlink">
    <!-- Generator: Sketch 63 (92445) - https://sketch.com -->
    <title>zoomeye</title>
    <desc>Created with Sketch.</desc>
    <g id="页面-1" stroke="none" stroke-width="1" fill="none" fill-rule="evenodd">
        <g id="画板" transform="translate(-308.000000, -119.000000)" fill="#0DA9F5">
            <g id="zoomeye" transform="translate(308.000000, 119.000000)">
                <path d="M0,3.66617167 C0,3.66617167 2.77152253,4.68818698 6.05838422,10.8381195 C10.5651525,18.8658529 10.772016,28.7473165 23.3016716,30.76048 C41.4821428,31.7445485 40.0788863,14.0242359 40.0788863,14.0242359 C40.0730079,14.0265014 40.8083669,28.1285569 23.8925901,28.2041674 C11.7273949,27.1124885 11.7819799,13.2174414 6.523897,6.85200492 C13.0343577,5.81101621 17.8644376,1.91127312 17.8644376,1.91127312 C17.8644376,1.91127312 12.4490376,3.82730403 7.61195963,4.30163921 C5.05728509,4.51854828 2.48473854,4.30330642 0,3.66475574 L0,3.66475574 L0,3.66617167 Z M52.5066498,27.0971965 C52.5066498,27.0971965 49.7384863,26.0760308 46.4519045,19.934877 C41.9479355,11.9179046 41.7419118,2.05060022 29.2189744,0.0394190886 C11.0497001,-0.94266711 12.451557,16.7518756 12.451557,16.7518756 C12.4574353,16.7501765 11.7237559,2.66737754 28.6277759,2.59261666 C40.7865329,3.68259641 40.731388,17.5581038 45.9863918,23.9144783 C39.47985,24.9543343 34.6525693,28.8486968 34.6525693,28.8486968 C34.6525693,28.8486968 40.0648901,26.9349314 44.8977693,26.4608794 C47.4509613,26.2442547 50.0219888,26.4594961 52.5052501,27.0977629 L52.5052501,27.0977629 L52.5066498,27.0971965 Z M32.3362024,15.318109 C32.2767694,18.792098 29.4551403,21.5653277 26.02088,21.5251048 C22.5866198,21.4848819 19.8292122,18.646309 19.8491881,15.1718592 C19.8693821,11.6974094 22.6594181,8.89165662 26.0939085,8.89207095 C29.5715277,8.92321526 32.3660155,11.7999599 32.3362024,15.318109 L32.3362024,15.318109 L32.3362024,15.318109 Z M26.0939085,11.5273922 C24.572664,11.5010625 23.1866808,12.40786 22.5864291,13.8222059 C21.9861774,15.2365519 22.2908184,16.8776723 23.3573778,17.9753559 C24.4239372,19.0730394 26.0406831,19.4093753 27.4488435,18.8265144 C28.8570039,18.2436534 29.7770328,16.8573043 29.7771418,15.318109 C29.7856417,14.3212995 29.4023544,13.3619046 28.7116063,12.6509993 C28.0208583,11.940094 27.0792375,11.5359176 26.0939085,11.5273922 L26.0939085,11.5273922 L26.0939085,11.5273922 Z M72.1035339,9.22141531 L62.3342039,23.5752224 L68.429538,23.5752224 C68.8424872,23.5817212 69.2546286,23.5361551 69.6564427,23.4395767 C70.0015308,23.3505312 70.321726,23.1823183 70.5922269,22.9479673 C70.8935965,22.6746688 71.1383174,22.3435456 71.3121902,21.9738103 C71.55805,21.4628818 71.7606924,20.931805 71.9179446,20.3862741 L72.275127,20.454805 L71.5845557,24.5018043 L59.4815035,24.5018043 L59.4815035,24.0795752 L69.0145781,10.1352539 L64.2525196,10.1352539 C63.771311,10.1231655 63.2903878,10.1689854 62.8198711,10.2717491 C62.5000585,10.3443721 62.2081812,10.5099247 61.9801006,10.7480666 C61.7571569,11.0071885 61.5965758,11.3150334 61.5109489,11.6474627 C61.3872638,12.1048992 61.2901509,12.5692675 61.2201084,13.0381851 L60.8075011,13.0381851 L61.1128977,9.22141531 L72.1024142,9.22141531 L72.1035339,9.22141531 Z M78.5168611,13.8687673 C79.1797772,13.8627619 79.8358687,14.0045008 80.4385359,14.2839167 C81.0208064,14.553797 81.5437297,14.9389564 81.9764356,15.4166575 C82.4169078,15.9051167 82.7610422,16.4742393 82.9903185,17.0933969 C83.2383111,17.7477826 83.3627894,18.4434161 83.3572982,19.144224 C83.3573528,19.6154988 83.300957,20.085044 83.1893441,20.5425924 C83.070722,21.0267498 82.9085291,21.4989025 82.7047965,21.9531377 C82.3361574,22.8311774 81.7177159,23.578465 80.9281221,24.0999646 C80.1696176,24.5790765 79.2909087,24.8273881 78.3967739,24.8152903 C77.7364781,24.822097 77.0837294,24.6728627 76.4904949,24.3794683 C75.9154365,24.0961646 75.4051696,23.6945373 74.9923444,23.2002853 C74.5674942,22.6919442 74.2370002,22.1100784 74.016811,21.4827672 C73.7816279,20.8299368 73.6627788,20.1400777 73.6657312,19.4452498 C73.6715495,18.4642797 73.9026937,17.4981003 74.3409624,16.6230263 C74.5548041,16.1835541 74.8265665,15.7754474 75.1488216,15.409861 C75.4420228,15.0779755 75.7793834,14.7889118 76.1512276,14.5509604 C76.5043451,14.3256968 76.8877919,14.1532478 77.2896765,14.0389616 C77.6892124,13.9261753 78.1020619,13.8689185 78.5168611,13.8687673 Z M78.1862714,14.6050487 C77.8609051,14.6050966 77.5394937,14.6772032 77.2446088,14.8163049 C76.9283661,14.9722366 76.6564565,15.2068762 76.4543848,15.4982148 C76.205595,15.8652542 76.0225372,16.27369 75.9135726,16.7048668 C75.7655923,17.2874181 75.6962878,17.887562 75.7075489,18.4889335 C75.7046974,19.1970358 75.7777172,19.9033651 75.9253294,20.595548 C76.0533992,21.2083532 76.2651886,21.8001338 76.5545974,22.3538448 C76.8003443,22.8230356 77.1418337,23.2340456 77.5564436,23.5596473 C77.934344,23.854864 78.3991165,24.0134876 78.8765628,24.010263 C79.2074552,24.0127584 79.5349838,23.9429152 79.8367004,23.805452 C80.1497477,23.6546557 80.4171155,23.4217233 80.6109688,23.1309049 C80.8588459,22.7561801 81.0345439,22.33747 81.1288272,21.8967839 C81.2638794,21.279531 81.325898,20.6482211 81.3135767,20.0161511 C81.31762,19.3129967 81.2466688,18.6114529 81.1019546,17.9236958 C80.9825789,17.322171 80.7777924,16.7412863 80.4939607,16.1990981 C80.2553034,15.7424402 79.9202444,15.3445017 79.512549,15.0335079 C79.1277249,14.7496778 78.6624779,14.5993779 78.1862714,14.6050487 L78.1862714,14.6050487 Z M89.7471118,13.8687673 C90.4102404,13.8633392 91.0664829,14.0050488 91.6696264,14.2839167 C92.250888,14.555257 92.77336,14.9402242 93.2069662,15.4166575 C93.6465479,15.9059499 93.990823,16.474834 94.2216889,17.0933969 C94.4666883,17.7485314 94.590055,18.4437866 94.5855895,19.144224 C94.5860737,19.615525 94.5296716,20.0851226 94.4176354,20.5425924 C94.2995165,21.0267179 94.1377909,21.4988741 93.9344874,21.9531377 C93.5650001,22.8300602 92.9475688,23.5769509 92.1597724,24.0999646 C91.4002136,24.5790252 90.5206286,24.8273098 89.625625,24.8152903 C88.9651909,24.821706 88.3123482,24.672494 87.7187862,24.3794683 C87.1438195,24.0960157 86.633581,23.6944108 86.2206356,23.2002853 C85.7970852,22.691169 85.4669869,22.1094993 85.245942,21.4827672 C85.0101765,20.8300779 84.8911253,20.1401462 84.894294,19.4452498 C84.8996699,18.464224 85.1308388,17.4979414 85.5695336,16.6230263 C85.7831662,16.183297 86.0551516,15.7751384 86.3779526,15.409861 C86.6707622,15.0780071 87.0077491,14.7889406 87.379239,14.5509604 C87.7332621,14.325829 88.1174139,14.1533068 88.5199272,14.0386784 C88.9194181,13.9257036 89.332306,13.868617 89.7471118,13.8687673 Z M89.4142828,14.6050487 C89.0890795,14.6048595 88.7678174,14.6770565 88.47318,14.8163049 C88.1569071,14.9711308 87.8855626,15.2060317 87.6854753,15.4982148 C87.4340785,15.8641951 87.2497572,16.2729114 87.141304,16.7048668 C86.9933237,17.2874181 86.9240192,17.887562 86.9352803,18.4889335 C86.9320544,19.1970847 87.0052684,19.9034754 87.1536206,20.595548 C87.2807731,21.2090588 87.4936957,21.8011089 87.7859678,22.3538448 C88.0292651,22.8235401 88.369609,23.23478 88.7838951,23.5596473 C89.1620742,23.8549464 89.6271379,24.0135686 90.1048541,24.0101949 C90.4355316,24.0133207 90.7629045,23.9434495 91.0641519,23.805452 C91.3772866,23.6546744 91.6447495,23.4217434 91.8387002,23.1309049 C92.0868035,22.7563038 92.2625204,22.3375487 92.3565587,21.8967839 C92.49175,21.2795535 92.5537702,20.6482267 92.5413082,20.0161511 C92.5451634,19.3130206 92.4743091,18.6115072 92.3299659,17.9236958 C92.210373,17.3221922 92.0054985,16.7413253 91.7216922,16.1990981 C91.4833867,15.742199 91.1482672,15.3441887 90.7402804,15.0335079 C90.3563623,14.7491431 89.8914616,14.5987647 89.4156824,14.6050487 L89.4142828,14.6050487 Z M99.0531685,16.0637356 C99.4221076,15.682002 99.7129481,15.3840912 99.9189718,15.1711359 C100.051822,15.0294255 100.191979,14.8949139 100.338857,14.7681634 C100.661609,14.4952328 101.022877,14.2726439 101.410684,14.1077756 C101.76722,13.9541684 102.150155,13.8730519 102.537656,13.8690505 C103.1307,13.8540813 103.709336,14.0550696 104.16821,14.4354208 C104.644642,14.8578109 104.963399,15.4327813 105.071244,16.064302 C105.392922,15.6705078 105.740838,15.299425 106.112559,14.9536497 C106.381117,14.7015549 106.674089,14.4774631 106.98704,14.2847663 C107.231742,14.1361889 107.497343,14.0260946 107.774745,13.9582538 C108.039923,13.8983312 108.310893,13.8686007 108.582604,13.8696168 C108.936645,13.8663701 109.288086,13.9310393 109.618321,14.0602005 C109.947761,14.1963491 110.236086,14.4176272 110.454452,14.7018981 C110.718404,15.0547613 110.909812,15.4575395 111.017379,15.8864617 C111.167087,16.4879394 111.236102,17.1070638 111.222563,17.7271653 L111.222563,22.1709071 C111.222563,22.5160155 111.231893,22.8111888 111.250555,23.0564272 C111.256508,23.2678861 111.314938,23.4744338 111.420468,23.657063 C111.527507,23.8182824 111.687272,23.936194 111.871705,23.9900887 C112.152516,24.0685782 112.443578,24.1029614 112.734709,24.0920354 L112.734709,24.501238 L107.774745,24.501238 L107.774745,24.0917522 L107.986367,24.0917522 C108.218062,24.0966332 108.449531,24.074205 108.676098,24.0249205 C108.849427,23.9864713 109.003947,23.8877687 109.112779,23.7459831 C109.233252,23.5714183 109.310706,23.3702351 109.338677,23.1592234 C109.388382,22.8321707 109.410948,22.5014839 109.406139,22.170624 L109.406139,17.7277317 C109.413115,17.318062 109.375567,16.9088573 109.29417,16.5074868 C109.238588,16.2307939 109.127191,15.9686729 108.966939,15.7375063 C108.836147,15.5535077 108.653803,15.4134303 108.443482,15.3353833 C108.215905,15.2544557 107.975909,15.215141 107.734716,15.2192774 C107.327335,15.2159076 106.92601,15.3191152 106.569674,15.5188873 C106.338657,15.6452874 106.118767,15.7914732 105.912414,15.955842 C105.644217,16.1664754 105.389446,16.3940433 105.149622,16.6371856 L105.149622,22.1714735 C105.149622,22.5257382 105.15634,22.8137375 105.171456,23.0374538 C105.170381,23.1934634 105.198888,23.3482343 105.255433,23.4933819 C105.345001,23.6844611 105.498779,23.8371196 105.689315,23.9241066 C106.036639,24.0604277 106.409312,24.1179466 106.781016,24.0926018 L106.781016,24.5018043 L101.704324,24.5018043 L101.704324,24.0917522 C102.01101,24.0994312 102.317579,24.0722641 102.618274,24.0107612 C102.811664,23.9730283 102.985382,23.8666795 103.10814,23.7108681 C103.22517,23.5353013 103.291211,23.3300631 103.298768,23.1184447 C103.320789,22.8682978 103.331986,22.5523576 103.332359,22.170624 L103.332359,17.7277317 C103.340121,17.3218905 103.298472,16.9166259 103.208353,16.5210797 C103.14183,16.2396251 103.022679,15.9736502 102.857329,15.7375063 C102.718635,15.5474174 102.529583,15.4009322 102.312038,15.314994 C102.091506,15.2320978 101.857839,15.1907321 101.622586,15.1929412 C101.371334,15.1950667 101.122311,15.2408538 100.886387,15.3283037 C100.635063,15.4190404 100.39362,15.5356645 100.165864,15.6763383 C99.9400705,15.8144467 99.7262802,15.9717077 99.526799,16.1464257 C99.3555896,16.296554 99.1968961,16.4606958 99.0523287,16.6371856 L99.0523287,22.1714735 C99.0480937,22.4489413 99.0593084,22.7264301 99.0859195,23.002622 C99.0978043,23.172168 99.1311062,23.3394758 99.1850124,23.5004616 C99.2162087,23.6037647 99.2726224,23.6974547 99.3490476,23.7728857 C99.4242673,23.838595 99.5065163,23.8955864 99.5942606,23.9427968 C99.9416032,24.0704491 100.311948,24.1213372 100.680364,24.0920354 L100.680364,24.501238 L95.710602,24.501238 L95.710602,24.0917522 C95.9876698,24.0999627 96.2645704,24.0704355 96.533857,24.0039648 C96.7181105,23.9576528 96.8814146,23.8495446 96.9971304,23.6972753 C97.1135293,23.5234907 97.1823893,23.321636 97.1967158,23.1122147 C97.221629,22.8658436 97.2370248,22.5529239 97.2370248,22.170624 L97.2370248,18.2184916 C97.2370248,17.5544224 97.2241483,17.0322289 97.2039938,16.6513448 C97.193968,16.3613066 97.1528585,16.0732254 97.0813873,15.792161 C97.0557192,15.6457321 96.9701235,15.5170767 96.8456918,15.4378963 C96.7211794,15.3878265 96.5876865,15.3646754 96.4537989,15.3699319 C96.1973986,15.3798591 95.9453166,15.4398636 95.7114418,15.5466395 L95.5549645,15.1374369 L98.575339,13.8699 L99.0540082,13.8699 L99.0540082,16.0645851 L99.0531685,16.0637356 Z M117.520001,10.0531302 L117.520001,16.0917709 L120.78111,16.0917709 C121.171398,16.1025326 121.561285,16.0586965 121.939713,15.9615057 C122.205084,15.8939058 122.44758,15.7553009 122.641762,15.5602323 C122.820476,15.3674195 122.945127,15.1298768 123.002863,14.8720924 C123.074619,14.5426271 123.115853,14.2071108 123.126029,13.8699 L123.52548,13.8699 L123.52548,19.1850026 L123.126029,19.1850026 C123.066126,18.7602249 122.999504,18.4002965 122.930083,18.1088989 C122.874442,17.8508934 122.758272,17.6102128 122.591375,17.4071661 C122.414849,17.2166563 122.186228,17.0836622 121.934675,17.0251493 C121.556736,16.9373014 121.169311,16.8982883 120.78167,16.9090433 L117.520001,16.9090433 L117.520001,21.9537041 C117.498253,22.3686669 117.524748,22.7847778 117.59894,23.1934888 C117.625005,23.2654525 117.662857,23.332465 117.710909,23.3917184 C117.766145,23.4555 117.834313,23.5064971 117.910775,23.5412402 C118.014128,23.587375 118.123162,23.61919 118.234926,23.6358241 C118.406267,23.6621961 118.579497,23.6739425 118.752784,23.670939 L121.272096,23.670939 C121.69534,23.670939 122.053362,23.659234 122.346162,23.6358241 C122.603026,23.6199286 122.857257,23.5744187 123.103915,23.5001784 C123.304732,23.4361574 123.495926,23.3445915 123.67216,23.2280374 C123.863361,23.0939687 124.040954,22.9410562 124.202335,22.7715429 C124.770065,22.1481717 125.239751,21.4402569 125.594955,20.6725744 L126.030236,20.6725744 L124.742587,24.5015212 L113.289518,24.5015212 L113.289518,24.0792921 L113.806816,24.0792921 C113.955512,24.0785127 114.103762,24.0627655 114.249375,24.0322833 C114.398775,24.0017168 114.544115,23.9535293 114.682417,23.8887084 C114.813291,23.8266683 114.93365,23.7440922 115.039039,23.6440364 C115.144196,23.5453165 115.226084,23.4239565 115.278654,23.2889222 C115.394102,22.8026981 115.43908,22.3020798 115.412177,21.8027664 L115.412177,11.8799578 C115.416576,11.4857169 115.394223,11.0916355 115.345276,10.7004915 C115.331362,10.4776081 115.256763,10.2629649 115.129735,10.080316 C114.866607,9.78051725 114.425634,9.6305235 113.806816,9.63033471 L113.289518,9.63033471 L113.289518,9.22141531 L124.742028,9.22141531 L124.742028,12.5610181 L124.479179,12.5610181 C124.400647,12.1097497 124.287305,11.6653954 124.140192,11.2320301 C124.046909,10.9374044 123.877382,10.6734043 123.649206,10.4674301 C123.418909,10.2800875 123.141026,10.1622991 122.847505,10.1276079 C122.435242,10.0725986 122.019607,10.047614 121.603805,10.052847 L117.520001,10.052847 L117.520001,10.0531302 Z M126.680218,14.1697931 L131.360259,14.1697931 L131.360259,14.5928718 L131.133241,14.5928718 C130.866189,14.5712114 130.600486,14.6487304 130.385845,14.8109244 C130.226709,14.9455588 130.136523,15.1459464 130.140632,15.3557726 C130.175375,15.7867875 130.30119,16.2052316 130.509571,16.582814 L132.949385,21.7894567 L135.202209,16.0776117 C135.319395,15.7875354 135.383056,15.4781931 135.390037,15.1649058 C135.390194,15.0885725 135.378867,15.0126595 135.356447,14.9397736 C135.329905,14.8670372 135.280804,14.8049458 135.216485,14.7627829 C135.122491,14.7036817 135.018764,14.6621486 134.910249,14.6401637 C134.731951,14.6037378 134.550147,14.5878726 134.368317,14.5928718 L134.368317,14.1697931 L137.640902,14.1697931 L137.640902,14.5928718 C137.486226,14.6069146 137.333018,14.6342942 137.182947,14.6747123 C137.050406,14.7138582 136.929832,14.7863442 136.832483,14.8854021 C136.703948,15.0204865 136.596529,15.174612 136.51393,15.3424629 C136.381063,15.6038709 136.262021,15.8722368 136.157308,16.1464257 L132.074064,26.4518175 C131.894223,26.9147915 131.660221,27.3543096 131.377054,27.7609826 C131.131505,28.1147277 130.842447,28.435416 130.516849,28.7153166 C130.235538,28.9541391 129.920497,29.1490503 129.582185,29.2935807 C129.293176,29.4194672 128.982575,29.4868137 128.667955,29.491873 C128.466003,29.4936127 128.265557,29.4565163 128.077316,29.3825009 C127.907626,29.316735 127.750144,29.2224277 127.611523,29.1035635 C127.485065,28.9912992 127.382085,28.8545753 127.308646,28.7014405 C127.234944,28.5534343 127.196593,28.3899997 127.196677,28.2242735 C127.18247,27.9380171 127.290785,27.6594318 127.493955,27.4596735 C127.722414,27.2582046 128.020011,27.1556799 128.322529,27.1742229 C128.442272,27.1810142 128.560639,27.2034786 128.674673,27.2410546 C128.828351,27.2869306 128.989027,27.3347889 129.152502,27.3851958 C129.315978,27.4356028 129.464337,27.4826115 129.60038,27.5267884 C129.684475,27.5588891 129.771761,27.5816769 129.860709,27.5947529 C129.980015,27.5923057 130.097455,27.5643167 130.205294,27.5126292 C130.344861,27.4467072 130.470445,27.3539943 130.575073,27.2396386 C130.723763,27.081501 130.852914,26.9056768 130.959688,26.7160293 C131.113382,26.4514392 131.246919,26.1753838 131.359139,25.8902613 L132.074344,24.0906195 L128.468929,16.3086908 C128.423022,16.2237352 128.362838,16.1155585 128.28362,15.9742491 C128.204401,15.8329397 128.114266,15.6910639 128.017692,15.5494713 C127.921119,15.4078787 127.823146,15.2807286 127.726572,15.162074 C127.653263,15.0698119 127.573364,14.9831135 127.487517,14.9026764 C127.235449,14.757474 126.96278,14.6524082 126.679098,14.5911727 L126.679098,14.168094 L126.680218,14.1697931 Z M146.94164,14.8083663 C142.094765,14.814889 139.18636,19.7924348 139.18636,19.7924348 C139.18636,19.7924348 141.607418,25.7336599 146.94164,25.7744385 C152.275863,25.8152172 154.7,19.7924348 154.7,19.7924348 C154.7,19.7924348 151.786276,14.8004465 146.939961,14.8083663 L146.94164,14.8083663 Z M146.94164,16.304443 C143.42972,16.3106731 141.122591,19.8479391 141.122591,19.8479391 C141.122591,19.8479391 143.46695,24.2511855 146.94164,24.2800704 C150.416331,24.3089552 152.75985,19.8479391 152.75985,19.8479391 C152.75985,19.8479391 150.451321,16.2973634 146.939961,16.3041501 L146.94164,16.304443 Z M146.94164,17.7990944 C145.941905,17.7830021 145.031729,18.3798564 144.638075,19.309674 C144.24442,20.2394916 144.445388,21.3177949 145.146706,22.038754 C145.848023,22.7597131 146.910547,22.9802883 147.83585,22.5970082 C148.761152,22.2137281 149.365651,21.3026362 149.365778,20.2911239 C149.375556,18.9255306 148.289817,17.8101561 146.939961,17.7990944 L146.94164,17.7990944 Z" id="形状_3"></path>
            </g>
        </g>
    </g>
</svg>